<?xml version="1.0" encoding="UTF-8" standalone="no"?>
<!DOCTYPE svg PUBLIC "-//W3C//DTD SVG 1.1//EN"
 "http://www.w3.org/Graphics/SVG/1.1/DTD/svg11.dtd">
<!-- Generated by graphviz version 2.38.0 (20140413.2041)
 -->
<!-- Title: %3 Pages: 1 -->
<svg width="291pt" height="521pt"
 viewBox="0.00 0.00 291.31 521.00" xmlns="http://www.w3.org/2000/svg" xmlns:xlink="http://www.w3.org/1999/xlink">
<g id="graph0" class="graph" transform="scale(1 1) rotate(0) translate(4 517)">
<title>%3</title>
<polygon fill="white" stroke="none" points="-4,4 -4,-517 287.308,-517 287.308,4 -4,4"/>
<text text-anchor="middle" x="141.654" y="-9.2" font-family="Lato" font-size="16.00">Árbol de transición</text>
<!-- 1a -->
<g id="node1" class="node"><title>1a</title>
<ellipse fill="none" stroke="black" cx="29.4331" cy="-279" rx="29.3664" ry="18"/>
<text text-anchor="middle" x="29.4331" y="-276.5" font-family="Lato" font-size="10.00">Soleado</text>
</g>
<!-- 1b -->
<g id="node2" class="node"><title>1b</title>
<ellipse fill="none" stroke="black" cx="140.477" cy="-414" rx="29.3664" ry="18"/>
<text text-anchor="middle" x="140.477" y="-411.5" font-family="Lato" font-size="10.00">Soleado</text>
</g>
<!-- 1a&#45;&gt;1b -->
<g id="edge1" class="edge"><title>1a&#45;&gt;1b</title>
<path fill="none" stroke="black" d="M43.3701,-295.016C62.389,-318.563 98.0293,-362.687 120.157,-390.081"/>
<polygon fill="black" stroke="black" points="117.55,-392.424 126.557,-398.004 122.996,-388.026 117.55,-392.424"/>
<text text-anchor="middle" x="84.3663" y="-357" font-family="Lato" font-size="10.00">0.7</text>
</g>
<!-- 2b -->
<g id="node3" class="node"><title>2b</title>
<ellipse fill="none" stroke="black" cx="140.477" cy="-279" rx="30.7213" ry="18"/>
<text text-anchor="middle" x="140.477" y="-276.5" font-family="Lato" font-size="10.00">Nublado</text>
</g>
<!-- 1a&#45;&gt;2b -->
<g id="edge2" class="edge"><title>1a&#45;&gt;2b</title>
<path fill="none" stroke="black" d="M59.0831,-279C71.3316,-279 85.8479,-279 99.152,-279"/>
<polygon fill="black" stroke="black" points="99.4953,-282.5 109.495,-279 99.4953,-275.5 99.4953,-282.5"/>
<text text-anchor="middle" x="84.3663" y="-282" font-family="Lato" font-size="10.00">0.1</text>
</g>
<!-- 3b -->
<g id="node4" class="node"><title>3b</title>
<ellipse fill="none" stroke="black" cx="140.477" cy="-144" rx="30.7213" ry="18"/>
<text text-anchor="middle" x="140.477" y="-141.5" font-family="Lato" font-size="10.00">Lluvioso</text>
</g>
<!-- 1a&#45;&gt;3b -->
<g id="edge3" class="edge"><title>1a&#45;&gt;3b</title>
<path fill="none" stroke="black" d="M43.3701,-262.984C62.2868,-239.564 97.6466,-195.787 119.799,-168.362"/>
<polygon fill="black" stroke="black" points="122.656,-170.395 126.217,-160.417 117.21,-165.997 122.656,-170.395"/>
<text text-anchor="middle" x="84.3663" y="-222" font-family="Lato" font-size="10.00">0.2</text>
</g>
<!-- 1c -->
<g id="node5" class="node"><title>1c</title>
<ellipse fill="none" stroke="black" cx="252.698" cy="-495" rx="29.3664" ry="18"/>
<text text-anchor="middle" x="252.698" y="-492.5" font-family="Lato" font-size="10.00">Soleado</text>
</g>
<!-- 1b&#45;&gt;1c -->
<g id="edge4" class="edge"><title>1b&#45;&gt;1c</title>
<path fill="none" stroke="black" d="M160.174,-427.741C178.016,-440.853 205.075,-460.738 225.149,-475.489"/>
<polygon fill="black" stroke="black" points="223.146,-478.361 233.276,-481.462 227.291,-472.72 223.146,-478.361"/>
<text text-anchor="middle" x="196.587" y="-462" font-family="Lato" font-size="10.00">0.7</text>
</g>
<!-- 2c -->
<g id="node6" class="node"><title>2c</title>
<ellipse fill="none" stroke="black" cx="252.698" cy="-441" rx="30.7213" ry="18"/>
<text text-anchor="middle" x="252.698" y="-438.5" font-family="Lato" font-size="10.00">Nublado</text>
</g>
<!-- 1b&#45;&gt;2c -->
<g id="edge5" class="edge"><title>1b&#45;&gt;2c</title>
<path fill="none" stroke="black" d="M168.158,-420.536C181.928,-423.909 198.958,-428.081 214.043,-431.776"/>
<polygon fill="black" stroke="black" points="213.565,-435.262 224.111,-434.242 215.231,-428.463 213.565,-435.262"/>
<text text-anchor="middle" x="196.587" y="-432" font-family="Lato" font-size="10.00">0.1</text>
</g>
<!-- 3c -->
<g id="node7" class="node"><title>3c</title>
<ellipse fill="none" stroke="black" cx="252.698" cy="-387" rx="30.7213" ry="18"/>
<text text-anchor="middle" x="252.698" y="-384.5" font-family="Lato" font-size="10.00">Lluvioso</text>
</g>
<!-- 1b&#45;&gt;3c -->
<g id="edge6" class="edge"><title>1b&#45;&gt;3c</title>
<path fill="none" stroke="black" d="M168.158,-407.464C181.928,-404.091 198.958,-399.919 214.043,-396.224"/>
<polygon fill="black" stroke="black" points="215.231,-399.537 224.111,-393.758 213.565,-392.738 215.231,-399.537"/>
<text text-anchor="middle" x="196.587" y="-405" font-family="Lato" font-size="10.00">0.2</text>
</g>
<!-- 1d -->
<g id="node8" class="node"><title>1d</title>
<ellipse fill="none" stroke="black" cx="252.698" cy="-333" rx="29.3664" ry="18"/>
<text text-anchor="middle" x="252.698" y="-330.5" font-family="Lato" font-size="10.00">Soleado</text>
</g>
<!-- 2b&#45;&gt;1d -->
<g id="edge7" class="edge"><title>2b&#45;&gt;1d</title>
<path fill="none" stroke="black" d="M164.583,-290.32C180.561,-298.149 202.033,-308.668 219.661,-317.304"/>
<polygon fill="black" stroke="black" points="218.48,-320.623 229,-321.88 221.559,-314.337 218.48,-320.623"/>
<text text-anchor="middle" x="196.587" y="-312" font-family="Lato" font-size="10.00">0.2</text>
</g>
<!-- 2d -->
<g id="node9" class="node"><title>2d</title>
<ellipse fill="none" stroke="black" cx="252.698" cy="-279" rx="30.7213" ry="18"/>
<text text-anchor="middle" x="252.698" y="-276.5" font-family="Lato" font-size="10.00">Nublado</text>
</g>
<!-- 2b&#45;&gt;2d -->
<g id="edge8" class="edge"><title>2b&#45;&gt;2d</title>
<path fill="none" stroke="black" d="M171.304,-279C183.68,-279 198.227,-279 211.52,-279"/>
<polygon fill="black" stroke="black" points="211.847,-282.5 221.846,-279 211.846,-275.5 211.847,-282.5"/>
<text text-anchor="middle" x="196.587" y="-282" font-family="Lato" font-size="10.00">0.7</text>
</g>
<!-- 3d -->
<g id="node10" class="node"><title>3d</title>
<ellipse fill="none" stroke="black" cx="252.698" cy="-225" rx="30.7213" ry="18"/>
<text text-anchor="middle" x="252.698" y="-222.5" font-family="Lato" font-size="10.00">Lluvioso</text>
</g>
<!-- 2b&#45;&gt;3d -->
<g id="edge9" class="edge"><title>2b&#45;&gt;3d</title>
<path fill="none" stroke="black" d="M164.583,-267.68C180.455,-259.904 201.747,-249.472 219.308,-240.868"/>
<polygon fill="black" stroke="black" points="221.182,-243.848 228.622,-236.305 218.102,-237.562 221.182,-243.848"/>
<text text-anchor="middle" x="196.587" y="-258" font-family="Lato" font-size="10.00">0.1</text>
</g>
<!-- 1e -->
<g id="node11" class="node"><title>1e</title>
<ellipse fill="none" stroke="black" cx="252.698" cy="-171" rx="29.3664" ry="18"/>
<text text-anchor="middle" x="252.698" y="-168.5" font-family="Lato" font-size="10.00">Soleado</text>
</g>
<!-- 3b&#45;&gt;1e -->
<g id="edge10" class="edge"><title>3b&#45;&gt;1e</title>
<path fill="none" stroke="black" d="M169.006,-150.744C182.89,-154.145 199.922,-158.317 214.912,-161.989"/>
<polygon fill="black" stroke="black" points="214.354,-165.456 224.9,-164.436 216.02,-158.657 214.354,-165.456"/>
<text text-anchor="middle" x="196.587" y="-162" font-family="Lato" font-size="10.00">0.5</text>
</g>
<!-- 2e -->
<g id="node12" class="node"><title>2e</title>
<ellipse fill="none" stroke="black" cx="252.698" cy="-117" rx="30.7213" ry="18"/>
<text text-anchor="middle" x="252.698" y="-114.5" font-family="Lato" font-size="10.00">Nublado</text>
</g>
<!-- 3b&#45;&gt;2e -->
<g id="edge11" class="edge"><title>3b&#45;&gt;2e</title>
<path fill="none" stroke="black" d="M169.006,-137.256C182.683,-133.906 199.414,-129.808 214.239,-126.176"/>
<polygon fill="black" stroke="black" points="215.258,-129.53 224.138,-123.751 213.592,-122.731 215.258,-129.53"/>
<text text-anchor="middle" x="196.587" y="-135" font-family="Lato" font-size="10.00">0.2</text>
</g>
<!-- 3e -->
<g id="node13" class="node"><title>3e</title>
<ellipse fill="none" stroke="black" cx="252.698" cy="-63" rx="30.7213" ry="18"/>
<text text-anchor="middle" x="252.698" y="-60.5" font-family="Lato" font-size="10.00">Lluvioso</text>
</g>
<!-- 3b&#45;&gt;3e -->
<g id="edge12" class="edge"><title>3b&#45;&gt;3e</title>
<path fill="none" stroke="black" d="M160.676,-129.891C178.298,-116.94 204.598,-97.613 224.402,-83.0589"/>
<polygon fill="black" stroke="black" points="226.733,-85.6896 232.719,-76.9474 222.588,-80.0489 226.733,-85.6896"/>
<text text-anchor="middle" x="196.587" y="-111" font-family="Lato" font-size="10.00">0.3</text>
</g>
</g>
</svg>
