<?xml version="1.0" encoding="UTF-8" standalone="no"?>
<!DOCTYPE svg PUBLIC "-//W3C//DTD SVG 1.1//EN"
 "http://www.w3.org/Graphics/SVG/1.1/DTD/svg11.dtd">
<!-- Generated by graphviz version 2.38.0 (20140413.2041)
 -->
<!-- Title: %3 Pages: 1 -->
<svg width="291pt" height="159pt"
 viewBox="0.00 0.00 291.31 159.00" xmlns="http://www.w3.org/2000/svg" xmlns:xlink="http://www.w3.org/1999/xlink">
<g id="graph0" class="graph" transform="scale(1 1) rotate(0) translate(4 155)">
<title>%3</title>
<polygon fill="white" stroke="none" points="-4,4 -4,-155 287.308,-155 287.308,4 -4,4"/>
<text text-anchor="middle" x="141.654" y="-9.2" font-family="Lato" font-size="16.00">Diagrama de transición</text>
<!-- 1 -->
<g id="node1" class="node"><title>1</title>
<ellipse fill="none" stroke="black" cx="253.875" cy="-63" rx="29.3664" ry="18"/>
<text text-anchor="middle" x="253.875" y="-60.5" font-family="Lato" font-size="10.00">Soleado</text>
</g>
<!-- 1&#45;&gt;1 -->
<g id="edge1" class="edge"><title>1&#45;&gt;1</title>
<path fill="none" stroke="black" d="M263.444,-80.0373C265.397,-89.8579 262.207,-99 253.875,-99 248.668,-99 245.469,-95.4289 244.279,-90.3529"/>
<polygon fill="black" stroke="black" points="247.779,-90.0466 244.306,-80.0373 240.78,-90.0279 247.779,-90.0466"/>
<text text-anchor="middle" x="253.875" y="-102" font-family="Lato" font-size="10.00">0.7</text>
</g>
<!-- 2 -->
<g id="node2" class="node"><title>2</title>
<ellipse fill="none" stroke="black" cx="142.831" cy="-104" rx="30.7213" ry="18"/>
<text text-anchor="middle" x="142.831" y="-101.5" font-family="Lato" font-size="10.00">Nublado</text>
</g>
<!-- 1&#45;&gt;2 -->
<g id="edge2" class="edge"><title>1&#45;&gt;2</title>
<path fill="none" stroke="black" d="M234.29,-76.8131C226.116,-82.291 216.175,-88.1822 206.442,-92 199.052,-94.8986 190.889,-97.115 182.966,-98.8038"/>
<polygon fill="black" stroke="black" points="182.305,-95.3667 173.134,-100.673 183.612,-102.244 182.305,-95.3667"/>
<text text-anchor="middle" x="198.942" y="-99" font-family="Lato" font-size="10.00">0.1</text>
</g>
<!-- 3 -->
<g id="node3" class="node"><title>3</title>
<ellipse fill="none" stroke="black" cx="30.6105" cy="-63" rx="30.7213" ry="18"/>
<text text-anchor="middle" x="30.6105" y="-60.5" font-family="Lato" font-size="10.00">Lluvioso</text>
</g>
<!-- 1&#45;&gt;3 -->
<g id="edge3" class="edge"><title>1&#45;&gt;3</title>
<path fill="none" stroke="black" d="M224.402,-63C185.501,-63 115.555,-63 71.463,-63"/>
<polygon fill="black" stroke="black" points="71.3866,-59.5001 61.3866,-63 71.3865,-66.5001 71.3866,-59.5001"/>
<text text-anchor="middle" x="142.831" y="-66" font-family="Lato" font-size="10.00">0.2</text>
</g>
<!-- 2&#45;&gt;1 -->
<g id="edge4" class="edge"><title>2&#45;&gt;1</title>
<path fill="none" stroke="black" d="M165.148,-91.474C173.198,-87.1028 182.561,-82.436 191.442,-79 199.261,-75.9749 207.858,-73.3348 216.079,-71.1181"/>
<polygon fill="black" stroke="black" points="217.02,-74.4902 225.845,-68.6267 215.29,-67.7075 217.02,-74.4902"/>
<text text-anchor="middle" x="198.942" y="-82" font-family="Lato" font-size="10.00">0.2</text>
</g>
<!-- 2&#45;&gt;2 -->
<g id="edge5" class="edge"><title>2&#45;&gt;2</title>
<path fill="none" stroke="black" d="M152.755,-121.037C154.78,-130.858 151.472,-140 142.831,-140 137.431,-140 134.114,-136.429 132.88,-131.353"/>
<polygon fill="black" stroke="black" points="136.38,-131.047 132.908,-121.037 129.381,-131.028 136.38,-131.047"/>
<text text-anchor="middle" x="142.831" y="-143" font-family="Lato" font-size="10.00">0.7</text>
</g>
<!-- 2&#45;&gt;3 -->
<g id="edge6" class="edge"><title>2&#45;&gt;3</title>
<path fill="none" stroke="black" d="M112.553,-100.609C101.832,-98.7941 89.7533,-96.0636 79.2209,-92 72.5475,-89.4252 65.7592,-85.9201 59.4784,-82.2364"/>
<polygon fill="black" stroke="black" points="61.0551,-79.0957 50.7122,-76.7991 57.3654,-85.0444 61.0551,-79.0957"/>
<text text-anchor="middle" x="86.7209" y="-99" font-family="Lato" font-size="10.00">0.1</text>
</g>
<!-- 3&#45;&gt;1 -->
<g id="edge7" class="edge"><title>3&#45;&gt;1</title>
<path fill="none" stroke="black" d="M59.4132,-56.5204C74.868,-53.2491 94.5023,-49.6345 112.221,-48 139.315,-45.5006 146.351,-45.4645 173.442,-48 187.583,-49.3235 202.958,-51.9448 216.38,-54.631"/>
<polygon fill="black" stroke="black" points="215.708,-58.066 226.211,-56.6773 217.134,-51.2128 215.708,-58.066"/>
<text text-anchor="middle" x="142.831" y="-51" font-family="Lato" font-size="10.00">0.5</text>
</g>
<!-- 3&#45;&gt;2 -->
<g id="edge8" class="edge"><title>3&#45;&gt;2</title>
<path fill="none" stroke="black" d="M59.7853,-68.7228C70.7159,-71.3238 83.2247,-74.7747 94.2209,-79 99.9155,-81.1881 105.805,-83.888 111.419,-86.6959"/>
<polygon fill="black" stroke="black" points="110.039,-89.9239 120.523,-91.4519 113.28,-83.7194 110.039,-89.9239"/>
<text text-anchor="middle" x="86.7209" y="-82" font-family="Lato" font-size="10.00">0.2</text>
</g>
<!-- 3&#45;&gt;3 -->
<g id="edge9" class="edge"><title>3&#45;&gt;3</title>
<path fill="none" stroke="black" d="M40.5337,-80.0373C42.5588,-89.8579 39.2511,-99 30.6105,-99 25.2101,-99 21.8929,-95.4289 20.6588,-90.3529"/>
<polygon fill="black" stroke="black" points="24.1595,-90.047 20.6873,-80.0373 17.1596,-90.0276 24.1595,-90.047"/>
<text text-anchor="middle" x="30.6105" y="-102" font-family="Lato" font-size="10.00">0.3</text>
</g>
</g>
</svg>
